# xmcd CD database file
# Copyright (C) 1996 Ti Kan
#
# Track frame offsets:
# 	150
# 	16612
# 	32995
# 	45535
# 	60222
# 	75527
# 	94942
# 	104480
# 	121577
# 	129287
#
# Disc length: 2013 seconds
#
# Revision: 1
# Processed by: cddbd v1.4b41PL1 Copyright (c) Steve Scherf et al.
# Submitted via: DiscPlay 3.4.1
#
DISCID=6b07db0a
DTITLE=Bjelleklang - Dfng Dfng
DYEAR=1900
DGENRE=
TTITLE0=Kamel fra Lillestrxm
TTITLE1=Hyttetur
TTITLE2=Bildilla
TTITLE3=Neger pe Rasta
TTITLE4=For meg sjxl ei stxnn
TTITLE5=Kyss
TTITLE6=Jeg vil ha en liten hund
TTITLE7=Bikkjemxkk
TTITLE8=Bedre fxre var enn etter
TTITLE9=Hvorfor me jeg snakke om det
EXTD=
EXTT0=
EXTT1=
EXTT2=
EXTT3=
EXTT4=
EXTT5=
EXTT6=
EXTT7=
EXTT8=
EXTT9=
PLAYORDER=
